PathFileType	4	(X/Y/Z)	OpenSim_Sub10_CSBaseline_Gyro.trc
DataRate	CameraRate	NumFrames	NumMarkers	Units	OrigDataRate	OrigDataStartFrame	OrigNumFrames
100	100	27	8	m	100	1139	9111
Frame#	Time	torso_imu_offset_imu	pelvis_imu_offset_imu	tibia_r_imu_offset_imu	femur_r_imu_offset_imu	tibia_l_imu_offset_imu	femur_l_imu_offset_imu	toes_r_imu_offset_imu	toes_l_imu_offset_imu
				X1	Y1	Z1	X2	Y2	Z2	X3	Y3	Z3	X4	Y4	Z4	X5	Y5	Z5	X6	Y6	Z6	X7	Y7	Z7	X8		Y8	Z8	

1139	11.38000000	0.40459626	0.23767454	-0.18499335	0.52093121	-0.10638551	0.14576435	0.68761177	-0.09917605	-1.02839434	0.90090904	0.00835245	-0.62494782	0.36941097	-0.28417700	2.67250045	0.38239457	0.69626534	-1.19251792	0.01185694	0.01772057	0.17501812	-0.04995776	-4.76010462	0.57951254
1140	11.39000000	0.44078213	0.26710654	-0.18103599	0.55429602	-0.00379805	0.12075686	0.11095877	-0.35169322	-0.83965434	0.57736183	-0.16063295	-1.04152319	0.27424043	-0.38316201	2.66491864	0.35588694	0.82835031	-1.33384087	-0.02108941	-0.00687114	0.19226533	0.97578816	-5.07676335	0.57540298
1141	11.40000000	0.48860017	0.26544954	-0.16033237	0.58750084	0.08815597	0.09099802	-0.23471886	-0.60390429	-0.64909459	0.06578464	-0.36908470	-1.47763077	0.03098807	-0.46531792	2.55766697	0.35771633	0.95636244	-1.52645253	-0.07966700	-0.03624364	0.24400587	0.61472803	-5.01661582	0.95723941
1142	11.41000000	0.55538373	0.27215105	-0.11805161	0.63561077	0.14936447	0.05517732	-0.48243831	-0.54518828	-0.58738279	-0.47751197	-0.52281397	-1.80961948	-0.31038308	-0.52595036	2.55528452	0.50141630	1.07589210	-1.58540403	-0.14352160	-0.06466482	0.23279707	-0.65735750	-5.23016372	1.24745597
1143	11.42000000	0.63661048	0.29797595	-0.08577899	0.69074788	0.16228954	0.04341997	-1.00274620	-0.30789598	-0.59042700	-0.93952362	-0.52676208	-1.94213484	-0.63791826	-0.52571253	2.56618380	0.66304771	1.08075171	-1.74533768	-0.18581174	-0.07432882	0.29153069	0.41775730	-5.54181915	1.18659887
1144	11.43000000	0.68557229	0.31362428	-0.06173692	0.73205597	0.16587094	0.04397640	-1.37981248	-0.16413555	-0.48576914	-1.23590986	-0.38932369	-1.86662884	-0.93773550	-0.57674878	2.57636021	0.76702404	0.98301460	-1.94487420	-0.24512469	-0.09812240	0.32117053	0.36067939	-5.43887391	1.41086418
1145	11.44000000	0.71501182	0.29935280	-0.02242460	0.74542756	0.17465728	0.05103959	-1.20814061	-0.14558493	-0.33649082	-1.25871095	-0.15095874	-1.65700078	-1.07678165	-0.68386575	2.65194989	0.82842297	0.86955136	-2.14877233	-0.32084428	-0.09151880	0.34891514	0.17574479	-5.00476031	1.52504704
1146	11.45000000	0.71858699	0.28231691	0.02078798	0.73857829	0.19151305	0.05724543	-0.69253555	-0.12288838	-0.28720887	-1.03835943	0.09096521	-1.40531295	-0.98055055	-0.82976118	2.66207156	0.87051909	0.73570048	-2.35355657	-0.36109885	-0.08246253	0.36481883	1.31167101	-4.11348177	1.59384029
1147	11.46000000	0.70422756	0.24953702	0.06744494	0.69996138	0.20303322	0.06339507	-0.11135885	-0.12191490	-0.34710217	-0.69499198	0.25129421	-1.25518577	-0.61288873	-0.74335001	2.54533155	0.90525172	0.59161792	-2.54686205	-0.34034565	-0.08289151	0.35345340	-0.08265030	-3.50060185	1.92762798
1148	11.47000000	0.67045103	0.21573283	0.10272500	0.64407837	0.20786569	0.06411032	0.28822357	-0.15322972	-0.38777999	-0.24987765	0.28376619	-1.21910220	-0.16241188	-0.54209167	2.38780069	0.92187434	0.44671027	-2.69638596	-0.28630444	-0.08015731	0.32162131	-0.30687962	-2.93888573	1.87635071
1149	11.48000000	0.62270143	0.15730474	0.15359943	0.55938836	0.20880177	0.07055436	0.42684524	-0.15997622	-0.34597640	0.26489251	0.23783461	-1.23174242	0.25814717	-0.70433978	2.15202784	0.86347471	0.33896545	-2.73427815	-0.31245252	-0.07109795	0.27479941	0.53540753	-2.48450602	1.53965352
1150	11.49000000	0.60317442	0.08326196	0.21231930	0.45313772	0.21315525	0.06784021	0.42185285	-0.15104681	-0.29309036	0.75895362	0.17852075	-1.24918791	1.21861873	-1.23953766	1.74173029	0.71789499	0.33915865	-2.74308585	-0.23544977	-0.06461201	0.22115246	2.12930126	-0.58964308	1.53713898
1151	11.50000000	0.65174172	0.03434256	0.24252909	0.36118219	0.21511951	0.04890030	0.26224551	-0.12512059	-0.29568481	1.10019109	0.10487154	-1.28196278	2.38189669	-1.47124308	1.17555926	0.52029248	0.52900249	-2.78699539	-0.18543282	-0.04515997	0.15985938	1.03646206	0.48801289	1.36316489
1152	11.51000000	0.73030083	-0.00699649	0.28183273	0.32256020	0.20956524	0.01198470	0.01335977	-0.09460865	-0.30791413	1.25124144	0.03102085	-1.31707528	3.12581891	-1.31291059	0.50571328	0.52722696	0.53595167	-2.60231111	-0.10500140	-0.05197873	0.11430614	-0.45853462	1.07143249	1.44316228
1153	11.52000000	0.70085767	-0.08623477	0.33282989	0.31098408	0.21088610	-0.04631424	-0.16584786	-0.09868186	-0.27193905	1.24994258	-0.04099486	-1.31836332	3.44442477	-1.06565777	-0.12528084	0.65749124	0.59605263	-2.38867891	-0.07379537	-0.04858719	0.06194925	-0.47403317	1.31456970	1.22985853
1154	11.53000000	0.66273810	-0.16082037	0.35780626	0.32400178	0.20717160	-0.11084455	-0.23158925	-0.14220531	-0.22012888	1.19625259	-0.11432279	-1.29357577	3.20168724	-0.94719050	-0.63358420	0.75768663	0.65788138	-2.15649616	-0.03609054	-0.05870762	0.02055987	0.17620010	1.79026556	0.87148647
1155	11.54000000	0.53089329	-0.24110836	0.37631917	0.35187553	0.19585852	-0.17767371	-0.33077027	-0.17136704	-0.21823233	1.11710003	-0.14583661	-1.25049725	2.72752521	-0.92206359	-1.08729489	0.81332657	0.67448447	-2.00093508	-0.00623964	-0.05447321	0.00217867	0.90069756	2.20666702	0.55927380
1156	11.55000000	0.46691358	-0.26301917	0.41270350	0.38802952	0.17228636	-0.22139302	-0.42784459	-0.17514301	-0.24332837	0.98189665	-0.13010479	-1.19119294	2.22526138	-0.89459112	-1.52581602	0.72903240	0.61475773	-1.85583432	0.00977225	-0.06702541	-0.02002443	1.08530647	2.53847602	0.36811889
1157	11.56000000	0.43969974	-0.22618388	0.44735709	0.41682877	0.13502124	-0.24551560	-0.36293000	-0.14377449	-0.25028231	0.79862087	-0.10277668	-1.13644525	1.67788446	-0.84336191	-1.92235134	0.60408993	0.48439886	-1.73168731	0.04086755	-0.07679684	-0.05963990	1.00995942	2.80424248	0.21498607
1158	11.57000000	0.46740598	-0.17188084	0.45619239	0.45100975	0.08250545	-0.24359642	-0.16529485	-0.13946571	-0.23973481	0.61180838	-0.10455955	-1.11368471	1.16770544	-0.69893605	-2.30955535	0.37762139	0.36773282	-1.69520710	0.07121655	-0.07713674	-0.08924518	1.08158304	3.04640251	0.03771079
1159	11.58000000	0.49302710	-0.16854078	0.42001779	0.49363366	0.06364909	-0.22513703	0.04177880	-0.19323541	-0.21593719	0.43988631	-0.12922699	-1.13448027	0.79073977	-0.52465240	-2.72962383	0.09697701	0.35782470	-1.71291844	0.12039739	-0.07143560	-0.12220085	1.15132458	3.37660596	-0.15321447
1160	11.59000000	0.48232597	-0.18216852	0.38924091	0.54514013	0.06723652	-0.17791498	0.22581165	-0.25236212	-0.20958686	0.30187369	-0.13536584	-1.17130866	0.53061466	-0.40710773	-3.18196214	-0.11745430	0.36475914	-1.71688578	0.14009474	-0.05278360	-0.16174876	1.21153709	3.75234898	-0.30769860
1161	11.60000000	0.49338783	-0.21819447	0.34519721	0.59149988	0.08722951	-0.13583329	0.30724585	-0.24600671	-0.20772044	0.21112718	-0.10424440	-1.17924905	0.35371787	-0.35365961	-3.62561231	-0.25697284	0.31002775	-1.68867068	0.19532353	-0.02670667	-0.18174457	1.18645566	4.04442140	-0.43303601
1162	11.61000000	0.48263224	-0.21503931	0.28069492	0.62090091	0.11248103	-0.09919829	0.34556071	-0.24295968	-0.19021107	0.16042823	-0.05587438	-1.15913132	0.19284263	-0.30431692	-4.03221571	-0.36433904	0.24330812	-1.60482465	0.24063130	0.01410997	-0.20693277	1.18717756	4.22059029	-0.53670826
1163	11.62000000	0.48819116	-0.14978381	0.23754739	0.62377998	0.13624262	-0.06924822	0.42505917	-0.21376066	-0.17951686	0.14767053	-0.00390078	-1.14202693	0.02058026	-0.25108031	-4.37293960	-0.41704594	0.16159217	-1.47900237	0.22881466	0.03176586	-0.22256234	1.17721555	4.33007728	-0.63688805
1164	11.63000000	0.47442149	-0.11332354	0.20383242	0.60101360	0.16924657	-0.06138174	0.47262503	-0.19755010	-0.20286257	0.19222266	0.01442552	-1.14439990	-0.15733690	-0.16348450	-4.68363611	-0.57385465	0.17164854	-1.34623451	0.25568073	0.04910256	-0.22911038	1.11435165	4.46267542	-0.74005673
1165	11.64000000	0.46012602	-0.09483658	0.18280888	0.55440149	0.21079058	-0.06716706	0.42851260	-0.19392387	-0.22668313	0.31790696	-0.01014485	-1.15424729	-0.36402749	-0.01258274	-4.97154505	-0.75577979	0.20016987	-1.16035302	0.21055594	0.03923498	-0.23396971	0.99478024	4.66004928	-0.84607695
